<mxfile host="app.diagrams.net" modified="2023-06-12T18:43:50.113Z" agent="Mozilla/5.0 (Macintosh; Intel Mac OS X 10_15_7) AppleWebKit/537.36 (KHTML, like Gecko) Chrome/114.0.0.0 Safari/537.36" etag="7qChPDvckEQ6Yiusc9Ui" version="21.3.7" type="device">
  <diagram name="Page-1" id="rbiUo5bFybXOO1fcTCTT">
    <mxGraphModel dx="1242" dy="795" grid="1" gridSize="10" guides="1" tooltips="1" connect="1" arrows="1" fold="1" page="1" pageScale="1" pageWidth="850" pageHeight="1100" math="0" shadow="0">
      <root>
        <mxCell id="0" />
        <mxCell id="1" parent="0" />
        <mxCell id="9J3SF0-3zK-d3_jPCRng-8" value="" style="rounded=0;whiteSpace=wrap;html=1;fillColor=#CCFF99;" parent="1" vertex="1">
          <mxGeometry x="40" y="520" width="760" height="310" as="geometry" />
        </mxCell>
        <mxCell id="9J3SF0-3zK-d3_jPCRng-102" value="&lt;font color=&quot;#ffffff&quot;&gt;Event Stream&lt;/font&gt;" style="rounded=0;whiteSpace=wrap;html=1;fillColor=#006600;" parent="1" vertex="1">
          <mxGeometry x="75" y="690" width="700" height="60" as="geometry" />
        </mxCell>
        <mxCell id="9J3SF0-3zK-d3_jPCRng-108" value="" style="group" parent="1" vertex="1" connectable="0">
          <mxGeometry x="460" y="580" width="330" height="95" as="geometry" />
        </mxCell>
        <mxCell id="9J3SF0-3zK-d3_jPCRng-104" value="" style="rounded=0;whiteSpace=wrap;html=1;fillColor=#97D077;" parent="9J3SF0-3zK-d3_jPCRng-108" vertex="1">
          <mxGeometry width="330" height="90" as="geometry" />
        </mxCell>
        <mxCell id="9J3SF0-3zK-d3_jPCRng-103" value="&lt;font color=&quot;#ffffff&quot;&gt;Raw Topic&lt;/font&gt;" style="rounded=0;whiteSpace=wrap;html=1;fillColor=#006600;" parent="9J3SF0-3zK-d3_jPCRng-108" vertex="1">
          <mxGeometry x="39.99883720930232" y="20" width="53.72093023255814" height="35" as="geometry" />
        </mxCell>
        <mxCell id="9J3SF0-3zK-d3_jPCRng-106" value="&lt;font color=&quot;#ffffff&quot;&gt;Transformed Topic&lt;/font&gt;" style="rounded=0;whiteSpace=wrap;html=1;fillColor=#006600;" parent="9J3SF0-3zK-d3_jPCRng-108" vertex="1">
          <mxGeometry x="118.95348837209302" y="20" width="88.25581395348837" height="35" as="geometry" />
        </mxCell>
        <mxCell id="9J3SF0-3zK-d3_jPCRng-107" value="&lt;font color=&quot;#ffffff&quot;&gt;Validated Topic&lt;/font&gt;" style="rounded=0;whiteSpace=wrap;html=1;fillColor=#006600;" parent="9J3SF0-3zK-d3_jPCRng-108" vertex="1">
          <mxGeometry x="234.06976744186045" y="20" width="88.25581395348837" height="35" as="geometry" />
        </mxCell>
        <mxCell id="9J3SF0-3zK-d3_jPCRng-128" style="edgeStyle=orthogonalEdgeStyle;rounded=0;orthogonalLoop=1;jettySize=auto;html=1;startArrow=classic;startFill=1;" parent="1" target="9J3SF0-3zK-d3_jPCRng-102" edge="1">
          <mxGeometry relative="1" as="geometry">
            <Array as="points">
              <mxPoint x="120" y="690" />
              <mxPoint x="120" y="690" />
            </Array>
            <mxPoint x="140" y="610" as="sourcePoint" />
          </mxGeometry>
        </mxCell>
        <mxCell id="ZxNKODZLQWNlTjTZxuV1-7" value="Data Ingest Start" style="rounded=0;whiteSpace=wrap;html=1;fontSize=29;" parent="1" vertex="1">
          <mxGeometry x="195" y="40" width="440" height="80" as="geometry" />
        </mxCell>
        <mxCell id="RGziFcFXrHToBncZ5XYz-12" style="edgeStyle=orthogonalEdgeStyle;rounded=0;orthogonalLoop=1;jettySize=auto;html=1;entryX=0.25;entryY=1;entryDx=0;entryDy=0;" edge="1" parent="1" source="wtkJlvtXBfEeCUlwDUSq-8" target="RGziFcFXrHToBncZ5XYz-9">
          <mxGeometry relative="1" as="geometry">
            <Array as="points">
              <mxPoint x="150" y="380" />
              <mxPoint x="270" y="380" />
            </Array>
          </mxGeometry>
        </mxCell>
        <mxCell id="RGziFcFXrHToBncZ5XYz-13" style="edgeStyle=orthogonalEdgeStyle;rounded=0;orthogonalLoop=1;jettySize=auto;html=1;entryX=0.25;entryY=1;entryDx=0;entryDy=0;" edge="1" parent="1" source="wtkJlvtXBfEeCUlwDUSq-8" target="RGziFcFXrHToBncZ5XYz-7">
          <mxGeometry relative="1" as="geometry">
            <Array as="points">
              <mxPoint x="170" y="400" />
              <mxPoint x="580" y="400" />
            </Array>
          </mxGeometry>
        </mxCell>
        <mxCell id="RGziFcFXrHToBncZ5XYz-14" style="edgeStyle=orthogonalEdgeStyle;rounded=0;orthogonalLoop=1;jettySize=auto;html=1;entryX=0.25;entryY=1;entryDx=0;entryDy=0;" edge="1" parent="1" source="wtkJlvtXBfEeCUlwDUSq-8" target="RGziFcFXrHToBncZ5XYz-8">
          <mxGeometry relative="1" as="geometry">
            <Array as="points">
              <mxPoint x="160" y="390" />
              <mxPoint x="430" y="390" />
            </Array>
          </mxGeometry>
        </mxCell>
        <mxCell id="wtkJlvtXBfEeCUlwDUSq-8" value="Data_Ingest_Start" style="rounded=0;whiteSpace=wrap;html=1;fillColor=#FF9999;" parent="1" vertex="1">
          <mxGeometry x="80" y="570" width="120" height="40" as="geometry" />
        </mxCell>
        <mxCell id="RGziFcFXrHToBncZ5XYz-5" style="edgeStyle=orthogonalEdgeStyle;rounded=0;orthogonalLoop=1;jettySize=auto;html=1;" edge="1" parent="1" source="9J3SF0-3zK-d3_jPCRng-43">
          <mxGeometry relative="1" as="geometry">
            <mxPoint x="120" y="570" as="targetPoint" />
            <Array as="points">
              <mxPoint x="120" y="570" />
            </Array>
          </mxGeometry>
        </mxCell>
        <mxCell id="9J3SF0-3zK-d3_jPCRng-43" value="Reaper" style="rounded=0;whiteSpace=wrap;html=1;fillColor=#66B2FF;movable=1;resizable=1;rotatable=1;deletable=1;editable=1;locked=0;connectable=1;" parent="1" vertex="1">
          <mxGeometry x="80" y="240" width="120" height="40" as="geometry" />
        </mxCell>
        <mxCell id="RGziFcFXrHToBncZ5XYz-6" value="Send" style="rounded=0;whiteSpace=wrap;html=1;" vertex="1" parent="1">
          <mxGeometry x="80" y="340" width="80" height="20" as="geometry" />
        </mxCell>
        <mxCell id="RGziFcFXrHToBncZ5XYz-25" style="edgeStyle=orthogonalEdgeStyle;rounded=0;orthogonalLoop=1;jettySize=auto;html=1;startArrow=classic;startFill=1;endArrow=none;endFill=0;" edge="1" parent="1" source="RGziFcFXrHToBncZ5XYz-7">
          <mxGeometry relative="1" as="geometry">
            <mxPoint x="750" y="600" as="targetPoint" />
            <Array as="points">
              <mxPoint x="610" y="400" />
              <mxPoint x="750" y="400" />
            </Array>
          </mxGeometry>
        </mxCell>
        <mxCell id="RGziFcFXrHToBncZ5XYz-46" style="edgeStyle=orthogonalEdgeStyle;rounded=0;orthogonalLoop=1;jettySize=auto;html=1;entryX=0.5;entryY=1;entryDx=0;entryDy=0;" edge="1" parent="1" source="RGziFcFXrHToBncZ5XYz-7" target="RGziFcFXrHToBncZ5XYz-34">
          <mxGeometry relative="1" as="geometry" />
        </mxCell>
        <mxCell id="RGziFcFXrHToBncZ5XYz-48" style="edgeStyle=orthogonalEdgeStyle;rounded=0;orthogonalLoop=1;jettySize=auto;html=1;entryX=0;entryY=0.5;entryDx=0;entryDy=0;" edge="1" parent="1" source="RGziFcFXrHToBncZ5XYz-7" target="RGziFcFXrHToBncZ5XYz-34">
          <mxGeometry relative="1" as="geometry">
            <Array as="points">
              <mxPoint x="600" y="210" />
            </Array>
          </mxGeometry>
        </mxCell>
        <mxCell id="RGziFcFXrHToBncZ5XYz-7" value="Forklift" style="rounded=0;whiteSpace=wrap;html=1;fillColor=#66B2FF;movable=1;resizable=1;rotatable=1;deletable=1;editable=1;locked=0;connectable=1;" vertex="1" parent="1">
          <mxGeometry x="550" y="240" width="120" height="40" as="geometry" />
        </mxCell>
        <mxCell id="RGziFcFXrHToBncZ5XYz-17" style="edgeStyle=orthogonalEdgeStyle;rounded=0;orthogonalLoop=1;jettySize=auto;html=1;startArrow=classic;startFill=1;endArrow=none;endFill=0;" edge="1" parent="1" source="RGziFcFXrHToBncZ5XYz-8">
          <mxGeometry relative="1" as="geometry">
            <mxPoint x="770" y="600" as="targetPoint" />
            <Array as="points">
              <mxPoint x="460" y="380" />
              <mxPoint x="770" y="380" />
            </Array>
          </mxGeometry>
        </mxCell>
        <mxCell id="RGziFcFXrHToBncZ5XYz-44" style="edgeStyle=orthogonalEdgeStyle;rounded=0;orthogonalLoop=1;jettySize=auto;html=1;entryX=1;entryY=0.5;entryDx=0;entryDy=0;" edge="1" parent="1" source="RGziFcFXrHToBncZ5XYz-8" target="RGziFcFXrHToBncZ5XYz-20">
          <mxGeometry relative="1" as="geometry">
            <Array as="points">
              <mxPoint x="460" y="155" />
            </Array>
          </mxGeometry>
        </mxCell>
        <mxCell id="RGziFcFXrHToBncZ5XYz-8" value="Discovery Streams" style="rounded=0;whiteSpace=wrap;html=1;fillColor=#66B2FF;movable=1;resizable=1;rotatable=1;deletable=1;editable=1;locked=0;connectable=1;" vertex="1" parent="1">
          <mxGeometry x="400" y="240" width="120" height="40" as="geometry" />
        </mxCell>
        <mxCell id="RGziFcFXrHToBncZ5XYz-26" style="edgeStyle=orthogonalEdgeStyle;rounded=0;orthogonalLoop=1;jettySize=auto;html=1;" edge="1" parent="1" source="RGziFcFXrHToBncZ5XYz-9">
          <mxGeometry relative="1" as="geometry">
            <mxPoint x="710" y="600" as="targetPoint" />
            <Array as="points">
              <mxPoint x="340" y="460" />
              <mxPoint x="710" y="460" />
              <mxPoint x="710" y="600" />
            </Array>
          </mxGeometry>
        </mxCell>
        <mxCell id="RGziFcFXrHToBncZ5XYz-30" style="edgeStyle=orthogonalEdgeStyle;rounded=0;orthogonalLoop=1;jettySize=auto;html=1;entryX=0.5;entryY=0;entryDx=0;entryDy=0;startArrow=classic;startFill=1;endArrow=none;endFill=0;" edge="1" parent="1" source="RGziFcFXrHToBncZ5XYz-9" target="9J3SF0-3zK-d3_jPCRng-106">
          <mxGeometry relative="1" as="geometry">
            <Array as="points">
              <mxPoint x="300" y="500" />
              <mxPoint x="623" y="500" />
            </Array>
          </mxGeometry>
        </mxCell>
        <mxCell id="RGziFcFXrHToBncZ5XYz-9" value="Valkyrie" style="rounded=0;whiteSpace=wrap;html=1;fillColor=#66B2FF;movable=1;resizable=1;rotatable=1;deletable=1;editable=1;locked=0;connectable=1;" vertex="1" parent="1">
          <mxGeometry x="240" y="240" width="120" height="40" as="geometry" />
        </mxCell>
        <mxCell id="RGziFcFXrHToBncZ5XYz-11" value="Receive" style="rounded=0;whiteSpace=wrap;html=1;" vertex="1" parent="1">
          <mxGeometry x="130" y="420" width="80" height="20" as="geometry" />
        </mxCell>
        <mxCell id="RGziFcFXrHToBncZ5XYz-18" value="Create and Begin Reading From Topic" style="rounded=0;whiteSpace=wrap;html=1;" vertex="1" parent="1">
          <mxGeometry x="720" y="440" width="120" height="40" as="geometry" />
        </mxCell>
        <mxCell id="RGziFcFXrHToBncZ5XYz-20" value="Exposed Websocket" style="rounded=0;whiteSpace=wrap;html=1;fillColor=#CCFF99;" vertex="1" parent="1">
          <mxGeometry x="200" y="130" width="120" height="50" as="geometry" />
        </mxCell>
        <mxCell id="RGziFcFXrHToBncZ5XYz-22" value="Push Processed Data to external subscribers" style="rounded=0;whiteSpace=wrap;html=1;" vertex="1" parent="1">
          <mxGeometry x="355" y="140" width="140" height="40" as="geometry" />
        </mxCell>
        <mxCell id="RGziFcFXrHToBncZ5XYz-27" value="Begin Producing to Topic" style="rounded=0;whiteSpace=wrap;html=1;" vertex="1" parent="1">
          <mxGeometry x="540" y="440" width="120" height="40" as="geometry" />
        </mxCell>
        <mxCell id="RGziFcFXrHToBncZ5XYz-31" value="Begin Reading from Topic" style="rounded=0;whiteSpace=wrap;html=1;" vertex="1" parent="1">
          <mxGeometry x="410" y="470" width="120" height="40" as="geometry" />
        </mxCell>
        <mxCell id="RGziFcFXrHToBncZ5XYz-33" style="edgeStyle=orthogonalEdgeStyle;rounded=0;orthogonalLoop=1;jettySize=auto;html=1;" edge="1" parent="1" source="RGziFcFXrHToBncZ5XYz-34" target="RGziFcFXrHToBncZ5XYz-39">
          <mxGeometry relative="1" as="geometry" />
        </mxCell>
        <mxCell id="RGziFcFXrHToBncZ5XYz-34" value="Trino" style="rounded=0;whiteSpace=wrap;html=1;fillColor=#CCFF99;" vertex="1" parent="1">
          <mxGeometry x="718.75" y="200" width="80" height="20" as="geometry" />
        </mxCell>
        <mxCell id="RGziFcFXrHToBncZ5XYz-35" style="edgeStyle=orthogonalEdgeStyle;rounded=0;orthogonalLoop=1;jettySize=auto;html=1;entryX=0.5;entryY=1;entryDx=0;entryDy=0;" edge="1" parent="1" source="RGziFcFXrHToBncZ5XYz-36" target="RGziFcFXrHToBncZ5XYz-41">
          <mxGeometry relative="1" as="geometry" />
        </mxCell>
        <mxCell id="RGziFcFXrHToBncZ5XYz-36" value="Hive" style="rounded=0;whiteSpace=wrap;html=1;fillColor=#CCFF99;" vertex="1" parent="1">
          <mxGeometry x="718.75" y="120" width="80" height="20" as="geometry" />
        </mxCell>
        <mxCell id="RGziFcFXrHToBncZ5XYz-37" value="S3" style="rounded=0;whiteSpace=wrap;html=1;fillColor=#CCFF99;" vertex="1" parent="1">
          <mxGeometry x="718.75" y="40" width="80" height="20" as="geometry" />
        </mxCell>
        <mxCell id="RGziFcFXrHToBncZ5XYz-38" style="edgeStyle=orthogonalEdgeStyle;rounded=0;orthogonalLoop=1;jettySize=auto;html=1;entryX=0.5;entryY=1;entryDx=0;entryDy=0;" edge="1" parent="1" source="RGziFcFXrHToBncZ5XYz-39" target="RGziFcFXrHToBncZ5XYz-36">
          <mxGeometry relative="1" as="geometry" />
        </mxCell>
        <mxCell id="RGziFcFXrHToBncZ5XYz-39" value="Distribute Queries" style="rounded=0;whiteSpace=wrap;html=1;fontSize=10;" vertex="1" parent="1">
          <mxGeometry x="710" y="160" width="97.5" height="20" as="geometry" />
        </mxCell>
        <mxCell id="RGziFcFXrHToBncZ5XYz-40" style="edgeStyle=orthogonalEdgeStyle;rounded=0;orthogonalLoop=1;jettySize=auto;html=1;entryX=0.5;entryY=1;entryDx=0;entryDy=0;" edge="1" parent="1" source="RGziFcFXrHToBncZ5XYz-41" target="RGziFcFXrHToBncZ5XYz-37">
          <mxGeometry relative="1" as="geometry" />
        </mxCell>
        <mxCell id="RGziFcFXrHToBncZ5XYz-41" value="Update Files" style="rounded=0;whiteSpace=wrap;html=1;fontSize=10;" vertex="1" parent="1">
          <mxGeometry x="710" y="80" width="97.5" height="20" as="geometry" />
        </mxCell>
        <mxCell id="RGziFcFXrHToBncZ5XYz-42" value="Write data messages to temp data storage" style="rounded=0;whiteSpace=wrap;html=1;fontSize=10;" vertex="1" parent="1">
          <mxGeometry x="710" y="240" width="97.5" height="40" as="geometry" />
        </mxCell>
        <mxCell id="RGziFcFXrHToBncZ5XYz-51" style="edgeStyle=orthogonalEdgeStyle;rounded=0;orthogonalLoop=1;jettySize=auto;html=1;entryX=0.5;entryY=0;entryDx=0;entryDy=0;" edge="1" parent="1" source="RGziFcFXrHToBncZ5XYz-47" target="RGziFcFXrHToBncZ5XYz-50">
          <mxGeometry relative="1" as="geometry">
            <Array as="points">
              <mxPoint x="380" y="205" />
            </Array>
          </mxGeometry>
        </mxCell>
        <mxCell id="RGziFcFXrHToBncZ5XYz-47" value="If last message, compact temp data into permanent storage" style="rounded=0;whiteSpace=wrap;html=1;fontSize=10;" vertex="1" parent="1">
          <mxGeometry x="560" y="180" width="117.5" height="50" as="geometry" />
        </mxCell>
        <mxCell id="RGziFcFXrHToBncZ5XYz-53" style="edgeStyle=orthogonalEdgeStyle;rounded=0;orthogonalLoop=1;jettySize=auto;html=1;entryX=0.436;entryY=0;entryDx=0;entryDy=0;entryPerimeter=0;startArrow=classic;startFill=1;" edge="1" parent="1" source="RGziFcFXrHToBncZ5XYz-50" target="9J3SF0-3zK-d3_jPCRng-102">
          <mxGeometry relative="1" as="geometry" />
        </mxCell>
        <mxCell id="RGziFcFXrHToBncZ5XYz-50" value="Data_Ingest_End" style="rounded=0;whiteSpace=wrap;html=1;fillColor=#FF9999;" vertex="1" parent="1">
          <mxGeometry x="320" y="570" width="120" height="40" as="geometry" />
        </mxCell>
        <mxCell id="RGziFcFXrHToBncZ5XYz-52" value="Send" style="rounded=0;whiteSpace=wrap;html=1;" vertex="1" parent="1">
          <mxGeometry x="345" y="340" width="70" height="20" as="geometry" />
        </mxCell>
      </root>
    </mxGraphModel>
  </diagram>
</mxfile>
